<svg xmlns="http://www.w3.org/2000/svg" version="1.1" xmlns:xlink="http://www.w3.org/1999/xlink" xmlns:svgjs="http://svgjs.dev/svgjs" viewBox="0 0 800 800" opacity="1"><defs><linearGradient x1="50%" y1="0%" x2="50%" y2="100%" id="uundulate-grad"><stop stop-color="hsl(180, 69%, 40%)" stop-opacity="1" offset="45%"></stop><stop stop-color="hsl(180, 69%, 60%)" stop-opacity="1" offset="100%"></stop></linearGradient></defs><g stroke-width="9" stroke="url(#uundulate-grad)" fill="none"><path d="M2102.3887175105137 291.3191787357673C2248.3890068261408 1207.7012765168324 2203.7206993778204 1888.8246847297896 1915.86384030617 2427.6226211282055C1628.0069812345196 2966.4205575266215 1209.5739586735685 2898.852083347192 720.6757939665977 2877.549273448166C231.77762925962634 2856.2464635491406 -108.14014165705544 2693.248574002696 -430.8473502872862 2325.369133612884C-753.5545589175167 1957.4896932230704 -658.8027911716108 1863.3644601539017 -828.3188074585144 1111.7279595770665C-997.834823745418 360.09145900023077 -1670.2286574331033 -640.248692531346 -1244.52422846442 -1282.4860691559238C-818.819799495737 -1924.7234457805018 517.7889211797174 -2298.887541531676 1215.0624515911636 -1971.0114482209074C1912.335982002609 -1643.1353549101386 1956.3884281948867 -625.0629190452976 2102.3887175105137 291.3191787357673C2248.3890068261408 1207.7012765168324 2203.7206993778204 1888.8246847297896 1915.86384030617 2427.6226211282055 "></path><path d="M2060.866931312658 293.9699952307319C2203.30623796205 1188.0013101390878 2159.727401427104 1852.5119522980713 1878.891441357201 2378.1684756135983C1598.0554812872983 2903.8249989291253 1189.8281422034433 2837.904536315048 712.8543229771303 2817.1213071452676C235.88050375081707 2796.338077975486 -95.74658982643359 2637.315746710663 -410.58289092909763 2278.4089755986497C-725.4191920317617 1919.5022044866382 -632.9784430113655 1827.6727088094003 -798.359922315662 1094.368805807609C-963.7414016199582 361.06490280581784 -1619.7353857055048 -614.876708444501 -1204.4139915897163 -1241.449758809943C-789.0925974739279 -1868.0228091753847 514.9159105021254 -2233.0609513716527 1195.1827694401213 -1913.1818359465121C1875.4496283781173 -1593.3027205213718 1918.4276246632662 -600.0613196776244 2060.866931312658 293.9699952307319C2203.30623796205 1188.0013101390878 2159.727401427104 1852.5119522980713 1878.891441357201 2378.1684756135983 "></path><path d="M2019.3453282202718 296.6208117256956C2158.2236522034286 1168.3013437613427 2115.734286581856 1816.199219866351 1841.9192255137004 2328.71433009899C1568.1041644455454 2841.22944033163 1170.0825088387874 2776.956989282904 705.0330350931317 2756.6933408423674C239.98356134747632 2736.4296924018317 -83.35285489034322 2581.3829194186283 -390.3182484654403 2231.4488175844162C-697.2836420405379 1881.5147157502033 -607.1539117456518 1791.980957464897 -768.4008540673407 1077.0096520381512C-929.6477963890295 362.0383466114049 -1569.2419308724375 -589.504724357656 -1164.3035716095437 -1200.413448463962C-759.36521234665 -1811.3221725702679 512.0430829300021 -2167.2343612116288 1175.3032703945478 -1855.352223672117C1838.563457859094 -1543.4700861326053 1880.4670042371145 -575.0597203099514 2019.3453282202718 296.6208117256956C2158.2236522034286 1168.3013437613427 2115.734286581856 1816.199219866351 1841.9192255137004 2328.71433009899 "></path><path d="M1977.8236030575722 299.27150615034725C2113.1409443744947 1148.6012553132855 2071.741049666295 1779.8863653643189 1804.9468875998878 2279.2600625140703C1538.15272553348 2778.6337596638214 1150.336753403818 2716.0093201804475 697.2116251388206 2696.2652524691557C244.08649687382285 2676.521184757864 -70.95924202456513 2525.449970056281 -370.05372807209596 2184.4885374998694C-669.1482141196268 1843.5271049434573 -581.3295025502503 1756.2890840500818 -738.4419078893319 1059.6503761983809C-895.5543132284134 363.011668346679 -1518.7485981096825 -564.1328623411237 -1124.1932736996837 -1159.3772601882936C-729.6379492896847 -1754.6216580354633 509.17013328756593 -2101.4078931219174 1155.4236492786622 -1797.5227334680342C1801.6771652697585 -1493.637573814151 1842.5062617406497 -550.058243012591 1977.8236030575722 299.27150615034725C2113.1409443744947 1148.6012553132855 2071.741049666295 1779.8863653643189 1804.9468875998878 2279.2600625140703 "></path><path d="M1936.3021220354976 301.92213953984265C2068.0584806861852 1128.901105830072 2027.7480568913597 1743.5734498271313 1767.9747938267 2229.8057338939943C1508.20153076204 2716.0380179608574 1130.591242109474 2655.0615900428356 689.3904593251345 2635.8371030607886C248.18967654079484 2616.6126160787408 -58.56538501816203 2469.5169596587793 -349.78896353812615 2137.528196380167C-641.0125420580905 1805.5394331015555 -555.5048492142241 1720.5971496001112 -708.4827175706981 1042.2910393234547C-861.4605859271722 363.98492904679733 -1468.255021206303 -538.7610613597474 -1084.0827316491986 -1118.341132947781C-699.9104420920942 -1697.921204535815 506.29742778575473 -2035.5814860673624 1135.5442723034012 -1739.6933042991077C1764.7911168210471 -1443.805122530853 1804.54576338481 -525.0568267503868 1936.3021220354976 301.92213953984265C2068.0584806861852 1128.901105830072 2027.7480568913597 1743.5734498271313 1767.9747938267 2229.8057338939943 "></path><path d="M1894.7803358376423 304.57277292933804C2022.975711822095 1109.2009563468582 1983.7547589406436 1707.2605342899428 1731.0023948777307 2180.3514052739174C1478.2500308148183 2653.4422762578924 1110.8454256393493 2594.113859905223 681.5689883356672 2575.4089536524198C252.2925510319851 2556.7040473996167 -46.17183318754019 2413.583949261276 -329.5245041799378 2090.567855260464C-612.8771751723355 1767.5517612596527 -529.680501053979 1684.9052151501392 -678.5238324278457 1024.9317024485276C-827.3671638017124 364.9581897469152 -1417.7617494787041 -513.3892603783713 -1043.9724947744946 -1077.305005707269C-670.1832400702851 -1641.2207510361666 503.42441710816274 -1969.7550790128075 1115.6645901523589 -1681.8638751301812C1727.9047631965555 -1393.9726712475551 1766.5849598531895 -500.05541048818236 1894.7803358376423 304.57277292933804C2022.975711822095 1109.2009563468582 1983.7547589406436 1707.2605342899428 1731.0023948777307 2180.3514052739174 "></path><path d="M1853.2586717100994 307.22365045945844C1977.8930650283173 1089.5010510042703 1939.7615830602394 1670.9478628933803 1694.0301179990743 2130.8973207944673C1448.298652937909 2590.8467786955534 1091.0997312395361 2533.166373908236 673.7476394165124 2514.9810483846777C256.39554759348835 2496.7957228611194 -33.77815928660607 2357.6511830043983 -309.259922751437 2043.6077582813869C-584.741686216268 1729.5643335583763 -503.8560308234214 1649.2135248407935 -648.5648252146807 1007.5726097142265C-793.27361960594 365.93169458765897 -1367.268355680793 -488.0172152563698 -1003.8621358294783 -1036.2686343261316C-640.4559159781635 -1584.5200533958932 500.551528500883 -1903.9284278176276 1095.7850300716295 -1624.0342018206297C1691.0185316423763 -1344.139975823632 1728.6242783918815 -475.05375008535293 1853.2586717100994 307.22365045945844C1977.8930650283173 1089.5010510042703 1939.7615830602394 1670.9478628933803 1694.0301179990743 2130.8973207944673 "></path><path d="M1811.7369465474003 309.87434488410963C1932.8103571993834 1069.8009625562127 1895.768346144679 1634.635008391348 1657.0577800852611 2081.443053209546C1418.347214025844 2528.251098027745 1071.3539758045677 2472.2187048057795 665.9262294622013 2454.552960011465C260.4984831198351 2436.8872152171516 -21.384546420827974 2301.718233642051 -288.9954023580924 1996.647478196841C-556.6062582953568 1691.5767227516299 -478.03162162802016 1613.5216514259778 -618.6058790366719 990.2133338744557C-759.1801364453238 366.9050163229331 -1316.7750229180383 -462.64535323983773 -963.7518379196182 -995.2324460504632C-610.7286529211981 -1527.8195388610889 497.6785788584473 -1838.1019597279162 1075.905408955744 -1566.2047116165472C1654.1322390530404 -1294.307463505178 1690.6635358954168 -450.0522727879925 1811.7369465474003 309.87434488410963C1932.8103571993834 1069.8009625562127 1895.768346144679 1634.635008391348 1657.0577800852611 2081.443053209546 "></path><path d="M1770.215282419857 312.52516137907423C1887.7277104056052 1050.100996178468 1851.775170264275 1598.3222759596292 1620.0855032066052 2031.9889076949394C1388.395836148935 2465.6555394302486 1051.608281404755 2411.2711577736354 658.1048805430464 2394.1249937085668C264.6014796813381 2376.9788296434963 -8.990872519893628 2245.785406350018 -268.7308209295916 1949.687320182607C-528.4707693392893 1653.5892340151968 -452.20715139746244 1577.8299000814754 -588.6468718235069 972.8541801049982C-725.0865922495515 367.8784601285206 -1266.2816291201273 -437.2733691529927 -923.6414789746019 -954.1961357044821C-581.0013288290764 -1471.1189022559718 494.80569025116733 -1772.2753695678925 1056.0258488750142 -1508.3750993421518C1617.2460074988608 -1244.4748291164112 1652.7028544341088 -425.0506734203195 1770.215282419857 312.52516137907423C1887.7277104056052 1050.100996178468 1851.775170264275 1598.3222759596292 1620.0855032066052 2031.9889076949394 "></path><path d="M1728.693618292314 315.17603890919463C1842.6450636118275 1030.4010908358791 1807.7819943838704 1562.0096045630657 1583.1132263279483 1982.5348232154874C1358.4444582720262 2403.0600418679096 1031.8625870049418 2350.3236717766476 650.2835316238916 2333.697088440823C268.7044762428411 2317.070505104998 3.4028013810407174 2189.8526400931396 -248.4662395010905 1902.7272232035289C-500.33528038322174 1615.601806313919 -426.38268116690494 1542.1382097721294 -558.687864610342 955.4950873706966C-690.993048053779 368.85196496926346 -1215.7882353222162 -411.9013240309914 -883.5311200295855 -913.1597643233449C-551.2740047369548 -1414.4182046156984 491.93280164388784 -1706.4487183727126 1036.1462887942844 -1450.5454260326005C1580.3597759446811 -1194.6421336924882 1614.7421729728003 -400.0490130174903 1728.693618292314 315.17603890919463C1842.6450636118275 1030.4010908358791 1807.7819943838704 1562.0096045630657 1583.1132263279483 1982.5348232154874 "></path><path d="M1687.1719541647713 317.8266112635338C1797.5624168180498 1010.7008803175095 1763.7888185034662 1525.696627990722 1546.1409494492914 1933.0804335602556C1328.493080395117 2340.4642391297893 1012.1168926051296 2289.3758806038786 642.462182704737 2273.2688779972987C272.8074728043439 2257.1618753907187 15.796475281974836 2133.9195686604808 -228.2016580725899 1855.7668210486704C-472.1997914271544 1577.6140734368605 -400.55821093634745 1506.4462142870016 -528.7288573971771 938.1356894606138C-656.8995038580067 369.825164634226 -1165.2948415243052 -386.5295840847716 -843.4207610845692 -872.1236981179889C-521.5466806448331 -1357.7178121512065 489.0599130366079 -1640.622372353314 1016.2667287135546 -1392.71605789883C1543.473544390502 -1144.8097434443464 1576.7814915114923 -375.04765779044214 1687.1719541647713 317.8266112635338C1797.5624168180498 1010.7008803175095 1763.7888185034662 1525.696627990722 1546.1409494492914 1933.0804335602556 "></path><path d="M1645.6503815899623 320.47736672334213C1752.4798615770064 991.0008529046086 1719.7957341757965 1489.383834523846 1509.1687641233698 1883.6262270104912C1298.5417940709422 2277.8686194971374 992.3712897580513 2228.428272536579 634.6409253383165 2212.8408506592436C276.9105609185815 2197.2534287819076 28.19024073564333 2077.98668033329 -207.93698509135447 1808.8066019992802C-444.0642109183525 1539.6265236652712 -374.73364915305535 1470.754401907343 -498.7697586312777 920.7764746560001C-622.8058681094999 370.79854740465635 -1114.8013561736598 -361.15766103308283 -803.3103105868184 -831.0874488071642C-491.8192649999771 -1301.0172365812455 486.1871159820628 -1574.7958432284463 996.3872601855601 -1334.8865066595913C1506.5874043890567 -1094.9771700907359 1538.8209016029182 -350.04611945792544 1645.6503815899623 320.47736672334213C1752.4798615770064 991.0008529046086 1719.7957341757965 1489.383834523846 1509.1687641233698 1883.6262270104912 "></path><path d="M1604.1286564272627 323.1281832183058C1707.3971537480725 971.3008865268639 1675.8024972602361 1453.0711020921267 1472.1964262095566 1834.1720814958835C1268.5903551588772 2215.273060899641 972.6255343230823 2167.480725504435 626.8195153840054 2152.412884356344C281.01349644492825 2137.3450432082523 40.58385360142165 2022.0538530412555 -187.6724646980099 1761.8464439850468C-415.9287829974412 1501.6390349288372 -348.9092399576541 1435.0626505628402 -468.8108124532689 903.4173208865418C-588.7123849488837 371.77199121024296 -1064.308023410905 -335.7856769462378 -763.2000126769583 -790.0511384611832C-462.09200194301184 -1244.3165999761286 483.3141663396268 -1508.9692530684226 976.507639069674 -1277.0568943851958C1469.7011117997208 -1045.1445357019693 1500.860159106454 -325.04452009025226 1604.1286564272627 323.1281832183058C1707.3971537480725 971.3008865268639 1675.8024972602361 1453.0711020921267 1472.1964262095566 1834.1720814958835 "></path><path d="M1562.6070228172985 325.7790607484262C1662.3145374718729 951.600981184275 1631.8093518974101 1416.7584306955637 1435.2241798484783 1784.7179970164325C1238.6390077995466 2152.6775633373018 952.8798704408482 2106.5332395074474 618.9981969824287 2091.9849790886005C285.1165235240094 2077.436718669754 52.977558019933895 1966.1210867843774 -167.40785275193082 1714.8863470059687C-387.79326352379576 1463.65160722756 -323.0847392095184 1399.370960253494 -438.85177472252576 886.0582281522402C-554.6188102355333 372.7454960509865 -1013.8145990954158 -310.41363182423675 -723.0896232143639 -749.014767080046C-432.36464733331195 -1187.6159023358553 480.4413082499252 -1443.1426018732427 956.6281095065224 -1219.2272210756446C1432.8149107631193 -995.3118402780462 1462.899508162724 -300.04285968742306 1562.6070228172985 325.7790607484262C1662.3145374718729 951.600981184275 1631.8093518974101 1416.7584306955637 1435.2241798484783 1784.7179970164325 "></path><path d="M1521.0852061018645 328.4296941379214C1617.231738090204 931.9008317010616 1587.8160234291154 1380.4455151583757 1398.2517503819308 1735.263668396356C1208.6874773347467 2090.0818216343373 933.1340234531444 2045.585509369835 611.1766954753832 2031.556829680233C289.21936749762176 2017.528149990631 65.37107933297762 1910.1880763868753 -147.1434239113205 1667.926005886266C-359.65792715561884 1425.663935385658 -297.2604215668514 1363.6790258035226 -408.89292009725136 868.6988912773136C-520.5254186276514 373.7187567511046 -963.3213578853954 -285.04183084286046 -682.9794168572382 -707.9786398395337C-402.63747582908104 -1130.915448836207 477.56826705475487 -1377.3161948186876 936.748396837902 -1161.3977919067179C1395.9285266210495 -945.4793889947483 1424.938674113525 -275.04144342521886 1521.0852061018645 328.4296941379214C1617.231738090204 931.9008317010616 1587.8160234291154 1380.4455151583757 1398.2517503819308 1735.263668396356 "></path><path d="M1479.5635419743212 331.08038856257303C1572.1490912964264 912.2007432530045 1543.8228475487113 1344.132660656344 1361.2794735032744 1685.8094008114363C1178.7360994578376 2027.486140966529 913.388329053332 1984.6378402673786 603.3553465562284 1971.1287413070213C293.32236405912477 1957.6196423466636 77.76475323391196 1854.2551270245285 -126.87884248281966 1620.9657258017205C-331.5224381995513 1387.676324578912 -271.4359513362939 1327.9871523887077 -378.93391288408657 851.3396154375432C-486.4318744318791 374.69207848637916 -912.8279640874844 -259.66996882632793 -642.8690579122218 -666.9424515638651C-372.9101517369593 -1074.2149343014025 474.69537844747515 -1311.4897267289764 916.8688367571726 -1103.5683017026354C1359.0422950668703 -895.6468766762941 1386.9779926522165 -250.03996612785818 1479.5635419743212 331.08038856257303C1572.1490912964264 912.2007432530045 1543.8228475487113 1344.132660656344 1361.2794735032744 1685.8094008114363 "></path><path d="M1438.0418778467788 333.7312966102718C1527.0664445026487 892.5008684279942 1499.8296716683071 1307.820019777359 1324.307196624618 1636.3553468495634C1148.7847215809288 1964.8906739217678 893.6426346535193 1923.6903847879698 595.5339976370735 1910.7008665568565C297.42536062062777 1897.7113483257435 90.15842713484608 1798.322391285229 -106.61426105431883 1574.0056593402205C-303.38694924348385 1349.6889273952129 -245.6114811057363 1292.2954925969398 -348.97490567092154 833.9805532208202C-452.3383302361067 375.6656138447006 -862.3345702895732 -234.29789318674852 -602.7586989672054 -625.9060496651498C-343.18282764483774 -1017.5142061435511 471.82248984019543 -1245.6630450162183 896.9892766764428 -1045.7385978755055C1322.1560635126907 -845.814150734793 1349.0173111909085 -225.03827520745085 1438.0418778467788 333.7312966102718C1527.0664445026487 892.5008684279942 1499.8296716683071 1307.820019777359 1324.307196624618 1636.3553468495634 "></path><path d="M1396.5201526840792 336.3819605173451C1481.9837366737147 872.8007494623589 1455.8364347527468 1271.5071347577486 1287.3348587108048 1586.901048747065C1118.8332826688634 1902.2949627363814 873.8968792185503 1862.7426851679347 587.7125876827624 1850.2727476660662C301.5282961469745 1837.802810164198 102.55204000062417 1742.3894114053037 -86.34974066097425 1527.045348738096C-275.25152132257267 1311.7012860708883 -219.78707191033493 1256.6035886645464 -319.01595949291277 816.6212468634712C-418.2448470754905 376.6389050623966 -811.8412375268184 -208.92606168779457 -562.6484010573454 -584.8698919070595C-313.45556458787235 -960.8137221263246 468.9495401977597 -1179.8366074440853 877.1096555605573 -987.909138189001C1285.2697709233544 -795.9816689339169 1311.0565686944442 -200.0368284276683 1396.5201526840792 336.3819605173451C1481.9837366737147 872.8007494623589 1455.8364347527468 1271.5071347577486 1287.3348587108048 1586.901048747065 "></path><path d="M1354.9985801092707 339.0326244244186C1436.9011814326714 853.1006304967232 1411.843350425077 1235.1942497381388 1250.3626733848828 1537.4467506445667C1088.8819963446886 1839.699251550995 854.1512763714722 1801.7949855479005 579.891330316342 1789.8446287752763C305.63138426121213 1777.8942720026525 114.9458054542929 1686.4564315253792 -66.08506767973893 1480.085038135972C-247.11594081377075 1273.7136447465641 -193.96251012704306 1220.911684732153 -289.0568607270134 799.2619405061232C-384.1512113269837 377.61219628009303 -761.347752176173 -183.55423018883994 -522.5379505595947 -543.8337341489691C-283.7281489430163 -904.1132381090981 466.0767431432141 -1114.010169871952 857.2301870325618 -930.0796785024964C1248.3836309219096 -746.1491871330409 1273.09597878587 -175.03538164788597 1354.9985801092707 339.0326244244186C1436.9011814326714 853.1006304967232 1411.843350425077 1235.1942497381388 1250.3626733848828 1537.4467506445667 "></path><path d="M1313.4769159817279 341.68344091938275C1391.8185346388932 833.4006641189785 1367.8501745446729 1198.8815173064195 1213.3903965062264 1487.9926051299594C1058.9306184677796 1777.1036929534994 834.4055819716596 1740.847438515757 572.0699813971873 1729.4166624723775C309.73438082271514 1717.9858864289977 127.33947935522701 1630.523604233345 -45.820486251238094 1433.124880121738C-218.98045185770331 1235.726156010131 -168.13803989648545 1185.2199333876506 -259.09785351384835 781.9027867366653C-350.05766713121136 378.5856400856801 -710.854358378262 -158.18224610199513 -482.4275916145783 -502.7974238029881C-254.0008248508948 -847.4126015039811 463.2038545359346 -1048.1835797119284 837.3506269518323 -872.2500662281012C1211.4973993677304 -696.3165527442741 1235.135297324562 -150.03378228021302 1313.4769159817279 341.68344091938275C1391.8185346388932 833.4006641189785 1367.8501745446729 1198.8815173064195 1213.3903965062264 1487.9926051299594 "></path><path d="M1271.955251854185 344.3341353440344C1346.7358878451155 813.7005756709214 1323.8569986642688 1162.5686628043877 1176.4181196275695 1438.5383375450392C1028.9792405908706 1714.5080122856912 814.6598875718469 1679.8997694133004 564.2486324780325 1668.9885740991658C313.83737738421814 1658.0773787850308 139.73315325616136 1574.5906548709982 -25.555904822737148 1386.1646000371916C-190.84496290163577 1197.738545203385 -142.31356966592784 1149.5280599728358 -229.13884630068333 764.5435108968952C-315.96412293543904 379.55896182095466 -660.3609645803509 -132.81038408546283 -442.317232669562 -461.7612355273195C-224.27350075877303 -790.7120869691767 460.3309659286549 -982.3571116222172 817.4710668711027 -814.4205760240185C1174.6111678135508 -646.4840404258198 1197.1746158632536 -125.03230498285257 1271.955251854185 344.3341353440344C1346.7358878451155 813.7005756709214 1323.8569986642688 1162.5686628043877 1176.4181196275695 1438.5383375450392 "></path><path d="M1230.4335877266412 346.9849823565769C1301.6532410513373 794.0006398107548 1279.8638227838646 1126.2559608902466 1139.445842748913 1389.08422254801C999.0278627139617 1651.9124842057736 794.9141931720342 1618.952252898735 556.4272835588777 1608.5606383138447C317.94037394572115 1598.169023728954 152.1268271570957 1518.6578580965424 -5.291323394236315 1339.2044725405358C-162.70947394556833 1159.75108698453 -116.48909943537024 1113.836339145911 -199.17983908751853 747.1843876450155C-281.8705787396666 380.53243614411986 -609.8675707824399 -107.43836948103944 -402.20687372454563 -420.72489466376055C-194.5461766666515 -734.0114198464814 457.4580773213752 -916.5304909446153 797.5915067903732 -756.5909332320451C1137.7249362593711 -596.651375519475 1159.2139344019456 -100.03067509760126 1230.4335877266412 346.9849823565769C1301.6532410513373 794.0006398107548 1279.8638227838646 1126.2559608902466 1139.445842748913 1389.08422254801 "></path><path d="M1188.9118320463642 349.6357988515408C1256.5705027048255 774.3006734330099 1235.8705553507257 1089.9432284585264 1102.473474317522 1339.6300770334024C969.0763932843181 1589.3169256082779 775.1684072194871 1558.004705866591 548.6058430869884 1548.132672010945C322.04327895448955 1538.2606381552991 164.52040950529556 1462.7250308045077 14.973166481530143 1292.2443145263019C-134.57407654223528 1121.763598248096 -90.664720757547 1078.1445878014083 -169.22092342708788 729.8252338755576C-247.77712609662854 381.5058799497067 -559.3742685372631 -82.06638539419464 -362.09660633226366 -379.6885843177796C-164.81894412726422 -677.3107832413644 454.5850971613611 -850.7039007845915 777.7118551569092 -698.76132095765C1100.8386131524574 -546.8187411307083 1121.253161387903 -75.02907572992831 1188.9118320463642 349.6357988515408C1256.5705027048255 774.3006734330099 1235.8705553507257 1089.9432284585264 1102.473474317522 1339.6300770334024 "></path><path d="M1147.390137401243 352.2865237937706C1211.4878253934694 754.6006155025307 1191.8773489527437 1053.6304044740727 1065.5011669212872 1290.1758399660603C939.124984889831 1526.7212754580478 755.4226823020965 1497.057067281713 540.7844636502555 1487.7046141553114C326.14624499841443 1478.35216102891 176.91405288865178 1406.7921119597395 35.237717392452964 1245.2840649593336C-106.43861810374585 1083.7760179589277 -64.84028104456763 1042.4527449041711 -139.26194673150098 712.4659885533654C-213.68361241843434 382.47923220255916 -508.88090525693025 -56.6944928600841 -321.98627790482544 -338.6523655245329C-135.0916505527207 -620.6102381889817 451.71217803650325 -784.8774021773022 757.8322645586013 -640.9318002359892C1063.9523510806996 -496.986198294676 1083.2924494090166 -50.02756791498962 1147.390137401243 352.2865237937706C1211.4878253934694 754.6006155025307 1191.8773489527437 1053.6304044740727 1065.5011669212872 1290.1758399660603 "></path><path d="M1105.8684732737001 354.93712666568763C1166.4051785996917 734.9004355017391 1147.8841730723395 1017.3174584193068 1028.5288900426306 1240.7214808284061C909.173607012922 1464.1255032375052 735.6769879022838 1436.1093066265225 532.9631147311006 1427.2764342293653C330.24924155991766 1418.4435618322086 189.307726789586 1350.8590710446583 55.5022988209538 1198.3236933220533C-78.30312914767842 1045.7883155994477 -39.01581081401014 1006.7607799366217 -109.30293951833596 695.1066211608606C-179.5900682226619 383.45246238509935 -458.38751145901915 -31.322722396286053 -281.8759189598091 -297.61626880159884C-105.36432646059905 -563.9098152069116 448.83928942922375 -719.0510256403254 737.952704477872 -583.1024015846408C1027.0661195265202 -447.1537775289562 1045.3317679477084 -25.026182170363427 1105.8684732737001 354.93712666568763C1166.4051785996917 734.9004355017391 1147.8841730723395 1017.3174584193068 1028.5288900426306 1240.7214808284061 "></path><path d="M1064.346809146157 357.58800419580825C1121.3225318059137 715.2005301591505 1103.8909971919352 981.0047870227438 991.5566131639741 1191.2673963489547C879.2222291360131 1401.5300056751657 715.9312935024709 1375.1618206295348 525.1417658119458 1366.8485289616224C334.35223812142056 1358.53523729371 201.70140069052036 1294.9263047877807 75.76688024945474 1151.3635963429751C-50.16764019161087 1007.8008878981705 -13.19134058345253 971.0690896272756 -79.34393230517094 677.7475284265593C-145.49652402688952 384.42596722584267 -407.8941176611081 -5.950677274284772 -241.76556001479275 -256.5798974204615C-75.6370023684774 -507.20911756663827 445.9664008219438 -653.2243744451454 718.0731443971422 -525.2727282750893C990.1798879723406 -397.32108210503316 1007.3710864864001 -0.024521767534224637 1064.346809146157 357.58800419580825C1121.3225318059137 715.2005301591505 1103.8909971919352 981.0047870227438 991.5566131639741 1191.2673963489547 "></path><path d="M1022.8251755361921 360.23872913803825C1076.2399155297142 695.5004722286715 1059.8978518291092 944.6919630382902 954.5843668028958 1141.8131592816128C849.270881776682 1338.934355524936 696.1856296202366 1314.2141820446568 517.3204474103691 1306.4204711059892C338.4552652005017 1298.6267601673208 214.0951051090326 1238.993385943012 96.0314921955337 1104.4033467760073C-22.032120717965313 969.8133076090028 12.633160164683204 935.3772467300387 -49.3848945744279 660.3882831043672C-111.40294931353901 385.39931947869536 -357.40069334561895 19.42121525982577 -201.65517055219829 -215.54367862721483C-45.90964775877762 -450.5085725142556 443.09354273224244 -587.397875837856 698.193614833991 -467.4432075534284C953.2936869357393 -347.4885392690008 969.41043554267 24.976986047404466 1022.8251755361921 360.23872913803825C1076.2399155297142 695.5004722286715 1059.8978518291092 944.6919630382902 954.5843668028958 1141.8131592816128 "></path><path d="M981.3034808910711 362.8896066681584C1031.1572382183583 675.8005668860828 1015.9046454311269 908.3792916417271 917.612059406661 1092.3590748021616C819.3194733821952 1276.3388579625962 676.439904702846 1253.266696047669 509.4990679736361 1245.9925658382456C342.55823124442657 1238.7184356288224 226.48874849238882 1183.060619686134 116.29604310645641 1057.4432497969296C6.103337720523996 931.8258799077253 38.45759987766269 899.6855564206924 -19.425917878841005 643.0291903700654C-77.30943563534476 386.3728243194387 -306.90733006528603 44.79326038182694 -161.54484212476007 -174.50730724607774C-16.1823541842341 -393.8078748739823 440.2206236073845 -521.571224642676 678.3140242356831 -409.6135342438769C916.4074248639815 -297.6558438450778 931.4497235637839 49.97864645023378 981.3034808910711 362.8896066681584C1031.1572382183583 675.8005668860828 1015.9046454311269 908.3792916417271 917.612059406661 1092.3590748021616 "></path><path d="M939.7818167635278 365.5402400576536C986.0745914245804 656.1004174028694 971.9114695507228 872.0663761045391 880.6397825280044 1042.9047461820853C789.368095505286 1213.7431162596317 656.6942103030333 1192.3189659100565 501.67771905448126 1185.5644164298778C346.66122780592957 1178.809866949699 238.88242239332317 1127.1276092886314 136.56062453495736 1010.4829086772274C34.23882667659154 893.8382080658232 64.2820701082203 863.993621970721 10.533089334323904 625.6698534951388C-43.215891439572374 387.34608501955677 -256.413936267375 70.16506136320322 -121.43448317974372 -133.47118000556543C13.544969907887548 -337.107421374334 437.34773500010476 -455.744817588121 658.4344641549535 -351.78410507495045C879.5211933098024 -247.82339256177988 893.4890421024754 74.9800627124381 939.7818167635278 365.5402400576536C986.0745914245804 656.1004174028694 971.9114695507228 872.0663761045391 880.6397825280044 1042.9047461820853 "></path><path d="M898.2600916008287 368.19096499988336C940.9918835956464 636.4003594723904 927.9182326351624 835.7535521200853 843.6674446141915 993.4505091147435C759.4166565932208 1151.1474661094016 636.9484548680643 1131.3713273251783 493.8563091001703 1125.136358574244C350.7641633322763 1118.90138982331 251.27603525910115 1071.1946904438628 156.82514492830194 963.5226591102589C62.37425459750273 855.8506277766551 90.10647930362165 828.3017790734841 40.49203551233268 608.3106081729466C-9.122408278956186 388.31943727240923 -205.92060350462015 95.53695389731365 -81.32418526988363 -92.43496121231874C43.27223296485295 -280.40687632195136 434.4747853576689 -389.91831898083166 638.5548430390677 -293.9545843532896C842.6349007204662 -197.99084972574752 855.5282996060112 99.98157052737679 898.2600916008287 368.19096499988336C940.9918835956464 636.4003594723904 927.9182326351624 835.7535521200853 843.6674446141915 993.4505091147435 "></path><path d="M856.7384885084421 370.84168994211325C895.9092978370247 616.7003015419111 883.9251177899146 799.4407281356316 806.6952287706913 943.9962720474016C729.465339751468 1088.5518159591716 617.2028215034079 1070.4236887403003 486.0350212161718 1064.7083007186106C354.8672209289357 1058.9929126969207 263.66977019519163 1015.2617715990943 177.08978739195913 916.5624095432909C90.50980458872641 817.8630474874874 115.9310105693354 792.6099361762472 70.45110376065395 590.9513628507545C24.971196951972445 389.2927895252619 -155.42714867155286 120.90884643142431 -41.213765289711034 -51.398742419072164C72.99961809213073 -223.7063312695687 431.60195778554544 -324.0918203735423 618.6753439934942 -236.12506363162873C805.7487302014433 -148.15830688971516 817.5676791798592 124.98307834231537 856.7384885084421 370.84168994211325C895.9092978370247 616.7003015419111 883.9251177899146 799.4407281356316 806.6952287706913 943.9962720474016 "></path><path d="M815.2167633457425 373.4924759194994C850.8265900080905 597.0003046465883 839.9318808743542 763.1279651863342 769.7228908568784 894.542096015216C699.5139008394026 1025.9562268440977 597.457066068439 1009.4761111905784 478.2136112618607 1004.2803038981333C358.97015645528245 999.084496605688 276.0633830609697 959.3289137894822 197.35430778530372 869.6022210114788C118.64523250963771 779.875528233476 141.75541976473676 756.9181543141665 100.41004993866261 573.5921785637188C59.064680112588576 390.26620281327087 -104.93381590879807 146.28080000069122 -1.1034673798509402 -10.362462590669338C102.72688114909613 -167.00572518202978 428.72900814310947 -258.2652607310967 598.7957228776085 -178.29548187481163C768.8624376121074 -98.32570301852655 779.6069366833947 149.9846471924103 815.2167633457425 373.4924759194994C850.8265900080905 597.0003046465883 839.9318808743542 763.1279651863342 769.7228908568784 894.542096015216 "></path><path d="M773.6950687006215 376.14323137930717C805.7439126967347 577.3002772336872 795.938674476372 726.8151717194582 732.7505834606436 845.087889465452C669.5624924449155 963.3606072114458 577.7113411510483 948.5285031232784 470.39223182512774 943.8522765600776C363.0731224992072 939.1760499968768 288.45702644432595 903.3960254622916 217.61885869622643 822.6420019620887C146.78069094812707 741.8879784618857 167.57985947771613 721.2263419345074 130.3690266342495 556.2329637591047C93.15819379078283 391.23958558370146 -54.440452628465096 171.65272305237977 39.00686104758728 30.673786720155476C132.45417472363965 -110.30514961206899 425.8560890182516 -192.43873160622923 578.9161322793007 -120.46593063557265C731.9761755403497 -48.493129664916125 741.6462247045083 174.98618552492712 773.6950687006215 376.14323137930717C805.7439126967347 577.3002772336872 795.938674476372 726.8151717194582 732.7505834606436 845.087889465452 "></path><path d="M732.1734045730786 378.79398683911506C760.661265902957 557.6002498207862 751.9454985959676 690.5023782525827 695.7783065819871 795.6336829156883C639.6111145680065 900.7649875787938 557.9656467512355 887.5808950559783 462.5708829059729 883.4242492220221C367.17611906071033 879.2676033880659 300.8507003452602 847.4631371351013 237.88344012472737 775.6817829126985C174.91617990419456 703.9004286902962 193.40432970827374 685.5345295548486 160.32803384741453 538.8737489544906C127.25173798655521 392.2129683541323 -3.947058830554056 197.02464610406855 79.11721999260362 71.71003603098018C162.1814988157613 -53.6045740421082 422.9832004109719 -126.61220248136175 559.0365721985711 -62.636379396333666C695.0899439861703 1.3394436886943595 703.6855432432001 199.98772385744383 732.1734045730786 378.79398683911506C760.661265902957 557.6002498207862 751.9454985959676 690.5023782525827 695.7783065819871 795.6336829156883 "></path><path d="M690.6517709631137 381.44474229892296C715.5786496267573 537.9002224078852 707.9523532331416 654.1895847857073 658.8060602209086 746.1794763659245C609.6597672086757 838.1693679461418 538.2199828690011 826.6332869886783 454.7495645043962 822.9962218839664C371.27914613979146 819.359156779255 313.24440476377254 791.5302488079108 258.14805207080633 728.7215638633086C203.05169937784012 665.9128789187064 219.22883045640947 649.8427171751899 190.28707157815762 521.5145341498765C161.34531269990578 393.1863511245631 46.54636548493511 222.39656915575722 119.22760945519809 112.74628534180488C191.90885342546107 3.096001527852593 420.1103423212703 -60.78567335649427 539.1570426354197 -4.806828157094742C658.2037429495689 51.172017042304844 665.7248922994701 224.98926218996064 690.6517709631137 381.44474229892296C715.5786496267573 537.9002224078852 707.9523532331416 654.1895847857073 658.8060602209086 746.1794763659245 "></path><path d="M649.1300152828362 384.09549775873074C670.4959112802451 518.2001949949843 663.9590858000031 617.8767913188317 621.8336917895176 696.7252698161608C579.7082977790323 775.5737483134899 518.474196916454 765.6856789213782 446.92812403250696 762.568194545911C375.3820511485601 759.4507101704439 325.6379871119725 735.5973604807205 278.41254194657284 681.7613448139185C231.18709678117324 627.9253291471166 245.0532091342327 614.1509047955311 220.2459872385882 504.15531934526234C195.43876534294378 394.1597338949937 97.03966773011177 247.7684922074459 159.33787684748006 153.7825346526297C221.63608596484835 59.79657709781338 417.2373621612563 5.040855768373206 519.2773910019557 53.02272308214424C621.317419842655 101.00459039591533 627.7641192854275 249.99080052247746 649.1300152828362 384.09549775873074C670.4959112802451 518.2001949949843 663.9590858000031 617.8767913188317 621.8336917895176 696.7252698161608 "></path><path d="M607.6083969316603 386.74622270096063C625.4133102628343 498.5001370645051 619.9659556959662 581.563967334378 584.8614606872283 647.2710327488189C549.7569656784904 712.9780981632598 498.72854829300854 704.7380403365001 439.1068208897194 702.1401366902776C379.4850934864303 699.5422330440549 338.0317067892739 679.664441635952 298.6771691514409 634.8010952469504C259.3226315136079 589.9377488579489 270.87772514115744 578.4590618982942 250.20504022812037 486.79607402307033C229.53235531508335 395.13308614784637 147.53310730439006 273.14038474155655 199.4482815688636 194.81875344587627C251.36345583333713 116.49712215019605 414.3645193303438 70.86735437566256 499.39787669759335 110.8522438038051C584.4312340648428 150.83713323194763 589.8034836004864 274.99230833741603 607.6083969316603 386.74622270096063C625.4133102628343 498.5001370645051 619.9659556959662 581.563967334378 584.8614606872283 647.2710327488189 "></path><path d="M566.0867022865393 389.3969934195575C580.3306329514785 478.80012491039315 575.9727492979838 545.2511891262914 547.8891532909936 597.8168414578441C519.8055572840033 650.3824937893969 478.9828233756177 643.7904475279892 431.28544145298645 641.7121246110111C383.58805953035517 639.633801694033 350.4253501726301 623.7315685675507 318.9417200623637 587.8408914563493C287.4580899520973 551.9502143451481 296.70216485413687 542.7672647774243 280.16401692370727 469.4368744772453C263.6258689932776 396.10648417706614 198.02647058472297 298.5123230520343 239.5586099963018 235.8550180154901C281.09074940788065 173.1977129789459 411.49160020548595 136.69389875931915 479.51828609928555 168.68181030183314C547.5449719930851 200.66972184434718 551.8427716216 299.9938619287219 566.0867022865393 389.3969934195575C580.3306329514785 478.80012491039315 575.9727492979838 545.2511891262914 547.8891532909936 597.8168414578441 "></path><path d="M524.5650381589962 392.0477336205763C535.2479861577007 459.10008223870307 531.9795734175797 508.9383804006268 510.91687641233693 548.3626196492913C489.8541794070943 587.7868588979559 459.23712897580515 582.8428242019 423.4640925338316 581.2840820141664C387.6910560918582 579.7253398264329 362.8190240735644 567.7986649815712 339.2063014908646 540.8806571481703C315.5935789081648 513.9626493147692 322.5266350846945 507.07543713897644 310.12302413687223 452.0776444138421C297.71941318905 397.0798516887078 248.519864382634 323.8842308449339 279.66896894131816 276.8912520675258C310.8180735000023 229.89827329011763 408.6187115982063 202.52041262539757 459.638726018556 226.51134628228306C510.6587404389056 250.5022799391686 513.8820901602919 324.99538500244967 524.5650381589962 392.0477336205763C535.2479861577007 459.10008223870307 531.9795734175797 508.9383804006268 510.91687641233693 548.3626196492913 "></path><path d="M483.0433587726642 394.6984890803842C490.1653241051338 439.40005482580204 487.9863822783864 472.62558693375115 473.9445842748913 498.9084130995275C459.90278627139617 525.1912392653039 439.4914193172034 521.8952161346001 415.64272835588775 520.856054676111C391.7940373945721 519.816893217622 375.21268271570955 511.86577665438085 359.47086766057635 493.9204380987801C343.72905260544314 475.97509954317957 348.35109005646297 471.3836247593176 340.08201609124814 434.7184296092281C331.81294212603336 398.05323445913854 299.013242921756 349.2561538966226 319.77931262754544 317.9275013783505C340.5453823333348 286.5988488600784 405.7458077321375 268.34694175026505 439.7591506790373 284.34089752152204C473.77249362593716 300.33485329277903 475.9213934401946 349.9969233349664 483.0433587726642 394.6984890803842C490.1653241051338 439.40005482580204 487.9863822783864 472.62558693375115 473.9445842748913 498.9084130995275 "></path><path d="M441.5216793863321 397.34925979898117C445.0826620525669 419.7000426716901 443.9931911391932 436.31280872566464 436.97229213744566 449.4542218085528C429.9513931356981 462.595634891441 419.7457096586017 460.9476233260891 407.8213641779439 460.42804259684453C395.89701869728606 459.90846186760007 387.6063413578548 455.9329035859795 379.7354338302882 446.9602343081791C371.8645263027216 437.98756503037885 374.1755450282315 435.6918276384479 370.0410080456241 417.3592300634031C365.9064710630167 399.02663248835836 349.506621460878 374.6280922071004 359.8896563137727 358.9637659479643C370.2726911666674 343.2994396888283 402.8729038660688 334.1734861339216 419.8795753395186 342.1704640195501C436.8862468129686 350.1674419051786 437.9606967200973 374.99847692627225 441.5216793863321 397.34925979898117C445.0826620525669 419.7000426716901 443.9931911391932 436.31280872566464 436.97229213744566 449.4542218085528 "></path></g></svg>